# xmcd
#
# Track frame offsets: 
#        150
#        16071
#        30990
#        48799
#        63288
#        76773
#        92499
#        104331
#        118991
#        134506
#        146963
#        162933
#        179591
#        194020
#        205666
#        221429
#
# Disc length: 3125 seconds
#
# Revision: 0
# Processed by: cddbd v1.5.2PL0 Copyright (c) Steve Scherf et al.
# Submitted via: ExactAudioCopyFreeDBPlugin 1.0
#
DISCID=dc0c3310
DTITLE=Truck Stop - Der Wilde,Wilde Westen CD2
DYEAR=2017
DGENRE=Country
TTITLE0=Ich möcht' so gern Dave Dudley hör'n
TTITLE1=Easy Rider
TTITLE2=Meine Tür steht immer offen
TTITLE3=Studio Nr. 9
TTITLE4=Das Mädchen wird schöner mit jedem Glas Bier
TTITLE5=Ich rauch' zuviel
TTITLE6=Ich pfeife auf die Autobahn
TTITLE7=Keiner meiner Freunde hat mehr Zeit
TTITLE8=Jeden Tag in einer andern Stadt
TTITLE9=Wieder mal zu spät
TTITLE10=Der Roadie von der Country Band
TTITLE11=Hey Kleiner
TTITLE12=Der Tramp
TTITLE13=Bleifuß-Joe
TTITLE14=Zehntausend Geiger
TTITLE15=Die Frau mit dem Gurt
EXTD=
EXTT0=
EXTT1=
EXTT2=
EXTT3=
EXTT4=
EXTT5=
EXTT6=
EXTT7=
EXTT8=
EXTT9=
EXTT10=
EXTT11=
EXTT12=
EXTT13=
EXTT14=
EXTT15=
PLAYORDER=
